<?xml version="1.0" encoding="UTF-8"?>
<svg version="1.1" xmlns="http://www.w3.org/2000/svg" viewBox="150 250 750 500">
<path d="M0 0 C2.16345587 -0.00216394 4.32638164 -0.02029511 6.48974609 -0.03930664 C36.12166225 -0.16031109 66.32184613 7.74849653 92.19677734 22.18530273 C93.14399658 22.70423096 93.14399658 22.70423096 94.11035156 23.23364258 C100.74267158 26.87343291 107.0934284 30.70951351 113.19677734 35.18530273 C114.18677734 35.51530273 115.17677734 35.84530273 116.19677734 36.18530273 C116.44814453 35.38350586 116.69951172 34.58170898 116.95849609 33.75561523 C118.45740279 29.43384641 120.1919547 25.25623035 122.00927734 21.06030273 C122.33992188 20.26237305 122.67056641 19.46444336 123.01123047 18.64233398 C125.02379422 14.01459623 126.72706783 10.88426471 131.19677734 8.18530273 C137.01141753 7.3076212 141.44711289 8.93504216 146.19677734 12.18530273 C151.31380089 16.4827141 153.56041191 21.54255725 156.29052734 27.56030273 C157.26003601 29.64189245 158.23144474 31.72259808 159.20458984 33.80249023 C159.94660645 35.39528809 159.94660645 35.39528809 160.70361328 37.02026367 C163.02858695 41.94847797 165.46599461 46.81808748 167.91552734 51.68530273 C168.39094971 52.63260254 168.86637207 53.57990234 169.35620117 54.5559082 C170.80123725 57.4332939 172.24861407 60.3094898 173.69677734 63.18530273 C180.02117882 75.74451888 186.25411083 88.33453471 192.2858429 101.0372467 C194.955591 106.64253086 197.69424858 112.20104386 200.55224609 117.71264648 C200.87697906 118.34240387 201.20171204 118.97216125 201.5362854 119.6210022 C202.8127004 122.09477446 204.09037467 124.56738433 205.39233398 127.02783203 C212.23578514 139.9981166 212.23578514 139.9981166 211.19677734 147.18530273 C210.33571885 149.91198797 209.81525449 150.81727607 207.3677063 152.2736969 C203.72634263 153.80276046 199.88758046 153.40240141 196.00146484 153.33764648 C195.014758 153.32934311 194.02805115 153.32103973 193.01144409 153.31248474 C190.7225482 153.29154303 188.43369514 153.26557985 186.14489746 153.23577881 C181.77325364 153.17988805 177.40160208 153.13915617 173.02978516 153.09985352 C164.28659744 153.01881919 155.54370418 152.91846931 146.80078125 152.81298828 C143.15171452 152.76906478 139.50263324 152.72745583 135.85351562 152.68798828 C125.47907898 152.57525252 115.10556907 152.43793541 104.73205566 152.2588501 C101.84527318 152.20972469 98.95872487 152.17029958 96.07165527 152.14300537 C92.54738145 152.10571776 89.02506652 152.03924796 85.50146484 151.96264648 C84.51711456 151.95906631 83.53276428 151.95548615 82.51858521 151.95179749 C78.1521408 151.82426255 75.11514472 151.58060642 71.61523438 148.82421875 C68.60784794 145.54268837 67.75248798 142.81613728 67.81787109 138.37475586 C68.68135858 133.38522248 71.41043949 128.90124523 73.69677734 124.43530273 C74.73306763 122.38054533 75.76455921 120.32335855 76.79052734 118.26342773 C77.25136719 117.36011719 77.71220703 116.45680664 78.18701172 115.52612305 C79.3948229 113.1510849 79.3948229 113.1510849 79.19677734 110.18530273 C77.03234576 108.57349198 74.95878722 107.21806191 72.63427734 105.87280273 C71.95679443 105.47617432 71.27931152 105.0795459 70.58129883 104.67089844 C44.25829078 89.65396786 12.40590664 85.68673321 -16.83447266 93.63452148 C-32.75048807 98.40135584 -46.12147777 106.51748275 -58.80322266 117.18530273 C-59.34599854 117.62092529 -59.88877441 118.05654785 -60.44799805 118.50537109 C-64.86580919 122.12985357 -68.3563939 126.02873481 -71.74072266 130.62280273 C-72.25505859 131.31656006 -72.76939453 132.01031738 -73.29931641 132.72509766 C-85.89177511 150.09678796 -93.44104671 169.68634608 -93.24072266 191.31030273 C-93.22827515 193.0685437 -93.22827515 193.0685437 -93.21557617 194.86230469 C-92.7320812 220.01608774 -83.70267956 243.38849124 -66.31103516 261.81030273 C-46.38031075 280.68550591 -20.65023798 290.88908536 6.78271484 290.39624023 C29.42151208 289.57870008 50.39369371 280.99320618 68.19677734 267.18530273 C71.63584155 270.26884396 73.4986492 273.33220712 75.51708984 277.47045898 C75.81716446 278.07904755 76.11723907 278.68763611 76.42640686 279.31466675 C77.06666962 280.61504345 77.70336234 281.91718307 78.33676147 283.22091675 C80.0016407 286.64677055 81.69317365 290.05946419 83.38037109 293.47436523 C83.71251114 294.14856003 84.04465118 294.82275482 84.38685608 295.51737976 C86.97389013 300.76156339 89.63957866 305.95920258 92.38427734 311.12280273 C92.76600098 311.84161621 93.14772461 312.56042969 93.54101562 313.30102539 C94.32610675 314.77828385 95.11159525 316.25533118 95.89746094 317.73217773 C98.52008712 322.68372751 101.10608041 327.65449649 103.69677734 332.62280273 C104.21393311 333.6133667 104.73108887 334.60393066 105.26391602 335.62451172 C105.74707275 336.55078369 106.23022949 337.47705566 106.72802734 338.43139648 C107.15664063 339.25309326 107.58525391 340.07479004 108.02685547 340.92138672 C108.41292969 341.668479 108.79900391 342.41557129 109.19677734 343.18530273 C109.7681543 344.22956421 109.7681543 344.22956421 110.35107422 345.29492188 C111.19677734 347.18530273 111.19677734 347.18530273 111.19677734 350.18530273 C108.89333206 351.9098236 106.65524996 353.39867895 104.19677734 354.87280273 C103.47127686 355.31414551 102.74577637 355.75548828 101.99829102 356.21020508 C71.23371069 374.65365579 37.79705792 383.65672208 1.94677734 383.49780273 C1.13483917 383.49664459 0.322901 383.49548645 -0.51364136 383.49429321 C-12.52303101 383.46043479 -24.06117922 382.89500507 -35.80322266 380.18530273 C-37.36556641 379.86045898 -37.36556641 379.86045898 -38.95947266 379.52905273 C-52.75879143 376.41307753 -66.15042327 371.45669026 -78.80322266 365.18530273 C-80.52992188 364.36739258 -80.52992188 364.36739258 -82.29150391 363.53295898 C-90.27277697 359.68624705 -97.59445775 355.33030672 -104.80322266 350.18530273 C-106.30175781 349.11795898 -106.30175781 349.11795898 -107.83056641 348.02905273 C-116.83684384 341.44531324 -124.92984323 334.07129975 -132.80322266 326.18530273 C-133.810625 325.24750977 -133.810625 325.24750977 -134.83837891 324.29077148 C-146.33399935 313.41533866 -155.19573432 299.98199529 -162.80322266 286.18530273 C-163.13773438 285.58347168 -163.47224609 284.98164062 -163.81689453 284.36157227 C-173.53994113 266.6165384 -180.81092008 247.22797915 -183.80322266 227.18530273 C-183.97764893 226.05447266 -184.1520752 224.92364258 -184.33178711 223.75854492 C-185.85219027 212.96510087 -186.16598294 202.32575734 -186.11572266 191.43530273 C-186.11290283 190.55145905 -186.11008301 189.66761536 -186.10717773 188.75698853 C-186.04620496 176.03711843 -185.93477383 163.58363976 -182.80322266 151.18530273 C-182.54508789 150.16259277 -182.28695312 149.13988281 -182.02099609 148.08618164 C-170.47204501 103.80241296 -145.8929504 64.44657036 -108.80322266 37.18530273 C-107.74361328 36.40413086 -106.68400391 35.62295898 -105.59228516 34.81811523 C-83.48580358 19.04336665 -57.85627028 6.90709775 -30.80322266 3.18530273 C-28.2799628 2.70034094 -25.7663702 2.18101103 -23.25244141 1.65014648 C-15.48091827 0.17516841 -7.87851309 -0.00087832 0 0 Z " fill="#7CCD76" transform="translate(375.80322265625,315.814697265625)"/>
<path d="M0 0 C0.05607422 1.63195312 0.05607422 1.63195312 0.11328125 3.296875 C0.92834286 23.0570391 6.2340943 41.23804547 20 56 C21.08861328 57.24136719 21.08861328 57.24136719 22.19921875 58.5078125 C30.97318063 67.99239278 42.64336345 75.15312258 55 79 C55.92296875 79.29648437 56.8459375 79.59296875 57.796875 79.8984375 C78.14155119 85.526787 99.66263795 81.98261094 118 72 C131.462552 64.37122054 140.48356874 54.77464689 149 42 C168.03698863 50.43591594 183.15182471 76.36927243 193 94 C193.34369629 94.59989746 193.68739258 95.19979492 194.04150391 95.81787109 C218.52156746 138.60916004 223.07972076 191.20590062 210.63671875 238.5390625 C201.83812793 269.33695587 185.74782041 295.72218218 164 319 C163.24074219 319.81339844 162.48148438 320.62679688 161.69921875 321.46484375 C134.25803716 349.89408753 97.57710897 366.57187865 59 373 C57.72769531 373.22558594 56.45539063 373.45117188 55.14453125 373.68359375 C23.53263397 378.51365182 -8.38355786 373.5002122 -38 362 C-38.75941895 361.70867187 -39.51883789 361.41734375 -40.30126953 361.1171875 C-55.62260347 355.13267377 -69.5037162 346.30957534 -83 337 C-83.15855469 337.60585938 -83.31710937 338.21171875 -83.48046875 338.8359375 C-87.60849081 353.6603261 -87.60849081 353.6603261 -92.7890625 358.76171875 C-95.64338743 360.36034243 -97.67897142 360.39965469 -100.9375 360.375 C-101.95714844 360.38273437 -102.97679687 360.39046875 -104.02734375 360.3984375 C-107.65725559 359.9119053 -109.18798635 359.38595098 -112 357 C-114.03354638 353.93226377 -115.62645868 350.67382898 -117.25 347.375 C-118.31364488 345.275962 -119.37745676 343.17700862 -120.44140625 341.078125 C-121.01262207 339.93923828 -121.58383789 338.80035156 -122.17236328 337.62695312 C-124.07673693 333.83653075 -126.01743152 330.06532954 -127.96484375 326.296875 C-128.47748779 325.30474503 -128.47748779 325.30474503 -129.00048828 324.29257202 C-129.70466157 322.93001718 -130.40890641 321.56749931 -131.11322021 320.20501709 C-132.93494593 316.67779758 -134.75055998 313.14743639 -136.56640625 309.6171875 C-137.30613869 308.17935496 -138.04588481 306.74152944 -138.78564453 305.30371094 C-139.33493622 304.23606506 -139.33493622 304.23606506 -139.89532471 303.14685059 C-143.13692028 296.8470615 -146.38081562 290.54845623 -149.625 284.25 C-150.1540947 283.22274811 -150.1540947 283.22274811 -150.69387817 282.17474365 C-156.88040772 270.16435845 -163.08209317 258.16187442 -169.29296875 246.1640625 C-171.52548806 241.85122759 -173.75586397 237.53730571 -175.98286438 233.22161865 C-176.98136765 231.28683389 -177.98052746 229.35238919 -178.97973633 227.41796875 C-180.26749099 224.92458775 -181.55217018 222.4296572 -182.8347168 219.93359375 C-185.39304524 214.96849579 -187.95362776 210.01768995 -190.71875 205.1640625 C-197.42855296 193.38085697 -197.42855296 193.38085697 -196 186 C-194.20606332 183.12970131 -193.01736724 181.50868362 -190 180 C-187.71195782 179.90247343 -185.42097868 179.8720248 -183.13085938 179.87060547 C-182.06445787 179.86802372 -182.06445787 179.86802372 -180.97651291 179.86538982 C-178.59890249 179.86103384 -176.22136145 179.86401238 -173.84375 179.8671875 C-172.16518122 179.86604578 -170.48661264 179.86456941 -168.80804443 179.86277771 C-164.30337639 179.85975982 -159.79874563 179.86400163 -155.29408264 179.87082291 C-152.51030509 179.87498459 -149.72652829 179.87795049 -146.94274902 179.88070679 C-103.83011734 179.92913768 -103.83011734 179.92913768 -82.40600586 180.26446533 C-80.31248518 180.29632889 -78.21888779 180.32351684 -76.12524414 180.34588623 C-73.27571421 180.37849021 -70.42723164 180.43009545 -67.578125 180.48828125 C-66.76736511 180.49468124 -65.95660522 180.50108124 -65.12127686 180.50767517 C-59.55507046 180.65604038 -56.47179116 182.00626955 -52.22265625 185.43359375 C-50.19272934 188.03423493 -50.40317826 190.29761554 -50.546875 193.5 C-52.16028998 202.40159989 -59.870156 209.73535805 -65.5925293 216.37915039 C-69.76440817 221.05894295 -69.76440817 221.05894295 -71 227 C-69.89224302 228.87321856 -69.89224302 228.87321856 -68.0625 230.375 C-67.08410156 231.2721875 -67.08410156 231.2721875 -66.0859375 232.1875 C-65.39757812 232.785625 -64.70921875 233.38375 -64 234 C-63.37351562 234.556875 -62.74703125 235.11375 -62.1015625 235.6875 C-60.79318503 236.8410083 -59.47771437 237.98650762 -58.15625 239.125 C-55.80037042 241.17359094 -53.4949254 243.27203002 -51.1875 245.375 C-24.61732264 269.24790178 1.3346622 285.38838961 38 284 C61.99480963 282.6120911 85.62824332 270.57077081 101.875 253 C117.9027069 234.16451963 126.41081245 213.1792314 126.375 188.4375 C126.37412384 187.7742572 126.37324768 187.1110144 126.37234497 186.42767334 C126.25898797 160.39008094 117.2761156 138.45294261 99.4296875 119.40234375 C77.36235742 97.58335982 51.66832693 89.44335024 21.01098633 89.58032227 C2.24944291 89.94616589 -14.44659495 95.72041672 -30.1796875 105.93359375 C-32 107 -32 107 -34 107 C-40.50638173 94.09861785 -46.91917672 81.16156463 -53.12304688 68.11181641 C-55.80128974 62.48536224 -58.51787649 56.8820952 -61.3125 51.3125 C-61.63057617 50.67803955 -61.94865234 50.0435791 -62.27636719 49.38989258 C-63.7770264 46.40550185 -65.29372957 43.43015206 -66.82421875 40.4609375 C-67.37722656 39.38070312 -67.93023438 38.30046875 -68.5 37.1875 C-68.9846875 36.25292969 -69.469375 35.31835938 -69.96875 34.35546875 C-71 32 -71 32 -71 29 C-68.83577263 27.44359819 -66.74643234 26.12218732 -64.4375 24.8125 C-63.42345093 24.2242041 -63.42345093 24.2242041 -62.38891602 23.62402344 C-60.26696963 22.40193176 -58.13474651 21.19956635 -56 20 C-55.03126953 19.44675049 -55.03126953 19.44675049 -54.04296875 18.88232422 C-45.29955017 13.90645013 -36.59164491 10.12679173 -27 7 C-25.71265627 6.55463441 -24.42621374 6.10665646 -23.140625 5.65625 C-6.85803636 0 -6.85803636 0 0 0 Z " fill="#4286C8" transform="translate(637,323)"/>
<path d="M0 0 C0.33 0 0.66 0 1 0 C1.04898438 0.67546875 1.09796875 1.3509375 1.1484375 2.046875 C1.22320312 2.93890625 1.29796875 3.8309375 1.375 4.75 C1.44460937 5.63171875 1.51421875 6.5134375 1.5859375 7.421875 C1.86009374 9.95662266 1.86009374 9.95662266 2.94262695 11.87597656 C4.04504868 14.09049262 4.69406826 16.17487126 5.33203125 18.5625 C5.57034668 19.43559814 5.80866211 20.30869629 6.05419922 21.20825195 C6.42955811 22.59016724 6.42955811 22.59016724 6.8125 24 C9.03557779 31.93985242 11.44706687 39.53884043 15 47 C15.29132813 47.61681641 15.58265625 48.23363281 15.8828125 48.86914062 C21.91383487 63.84441259 21.91383487 63.84441259 32 75 C32.56203125 76.0209375 33.1240625 77.041875 33.703125 78.09375 C36.12470627 82.48034823 39.29833239 85.89894149 42.75 89.5 C43.3776123 90.1614502 44.00522461 90.82290039 44.65185547 91.50439453 C48.89500959 95.93857292 53.16912001 100.202314 58 104 C58.86496094 104.6909375 59.72992188 105.381875 60.62109375 106.09375 C81.47610692 122.26815597 105.02711668 133.28622807 131 138 C132.87171875 138.3403125 132.87171875 138.3403125 134.78125 138.6875 C174.22454263 144.65371233 216.63685579 136.00342817 249.3203125 112.671875 C254.35213849 108.93818594 259.20333868 105.02778473 264 101 C273.62797203 118.57160059 283.22550553 136.14080408 292.06494141 154.12548828 C292.73539135 155.4695391 293.42187731 156.80563651 294.11865234 158.13623047 C294.48555176 158.84279785 294.85245117 159.54936523 295.23046875 160.27734375 C295.56844482 160.91792725 295.9064209 161.55851074 296.25463867 162.21850586 C297 164 297 164 297 167 C294.69655472 168.72452087 292.45847262 170.21337622 290 171.6875 C289.27449951 172.12884277 288.54899902 172.57018555 287.80151367 173.02490234 C257.03693334 191.46835305 223.60028057 200.47141934 187.75 200.3125 C186.93806183 200.31134186 186.12612366 200.31018372 185.2895813 200.30899048 C173.28019165 200.27513206 161.74204344 199.70970233 150 197 C148.9584375 196.7834375 147.916875 196.566875 146.84375 196.34375 C133.04443122 193.22777479 119.65279939 188.27138752 107 182 C105.84886719 181.45472656 104.69773437 180.90945313 103.51171875 180.34765625 C95.53044568 176.50094431 88.20876491 172.14500398 81 167 C80.00097656 166.2884375 79.00195312 165.576875 77.97265625 164.84375 C68.96637881 158.26001051 60.87337942 150.88599702 53 143 C52.32839844 142.37480469 51.65679687 141.74960937 50.96484375 141.10546875 C39.46922331 130.23003593 30.60748834 116.79669256 23 103 C22.66548828 102.39816895 22.33097656 101.79633789 21.98632812 101.17626953 C12.2104761 83.33486318 5.25263799 64.0772676 2 44 C1.77699219 42.76378906 1.55398437 41.52757812 1.32421875 40.25390625 C-0.74606638 26.94493039 -0.18398955 13.42840651 0 0 Z " fill="#53B46D" transform="translate(190,499)"/>
<path d="M0 0 C10.26346875 8.27375863 17.19910594 19.1053179 20 32 C20.36053773 35.55607864 20.37776266 39.05382737 20.3125 42.625 C20.31572266 43.51445312 20.31894531 44.40390625 20.32226562 45.3203125 C20.21561154 58.50663527 15.14013587 71.65141286 5.94140625 81.26171875 C-5.86988454 91.83722056 -20.46995595 97.75452752 -36.44921875 97.22265625 C-51.67766107 95.89337415 -64.21226949 88.63506018 -74.703125 77.76953125 C-78.45498484 73.24560501 -80.83523639 68.43691454 -83 63 C-83.33902344 62.17371094 -83.67804687 61.34742188 -84.02734375 60.49609375 C-87.90999682 49.06284346 -87.82404451 33.86227212 -83.32421875 22.66796875 C-77.09686892 10.12142027 -69.32210585 1.62858645 -57 -5 C-55.948125 -5.5775 -54.89625 -6.155 -53.8125 -6.75 C-36.20393434 -14.57602918 -15.5709835 -10.25170342 0 0 Z " fill="#F7C142" transform="translate(749,283)"/>
<path d="M0 0 C1.44241791 1.32801152 2.88183595 2.65933434 4.3125 4 C3.6525 5.32 2.9925 6.64 2.3125 8 C-1.74420938 8 -4.13414661 5.99404502 -7.4375 3.875 C-32.11446772 -11.36956288 -63.04788005 -16.42120139 -91.375 -9.9375 C-109.43675218 -5.46639875 -124.47745062 3.04657796 -138.6875 15 C-139.23027588 15.43562256 -139.77305176 15.87124512 -140.33227539 16.32006836 C-144.75008653 19.94455084 -148.24067124 23.84343207 -151.625 28.4375 C-152.13933594 29.13125732 -152.65367187 29.82501465 -153.18359375 30.53979492 C-165.77605246 47.91148522 -173.32532406 67.50104335 -173.125 89.125 C-173.11670166 90.29716064 -173.10840332 91.46932129 -173.09985352 92.67700195 C-172.70801923 113.0621457 -167.12487313 130.80669292 -155.5324707 147.57348633 C-152.6875 151.71438234 -152.6875 151.71438234 -152.6875 155 C-162.00218061 147.29129881 -168.76727485 139.43270075 -174.65332031 128.85742188 C-175.5608857 127.22740358 -176.507871 125.61946378 -177.4609375 124.015625 C-185.09046941 110.30570472 -187.12591212 95.61236467 -187.1875 80.125 C-187.19378418 78.937854 -187.20006836 77.75070801 -187.20654297 76.52758789 C-186.81392292 49.04990251 -174.26753327 23.99560296 -155.5 4.375 C-140.95564863 -9.6650396 -123.10113771 -19.53559129 -103.6875 -25 C-102.87023437 -25.23332031 -102.05296875 -25.46664063 -101.2109375 -25.70703125 C-65.58460195 -34.71077787 -27.00392601 -24.07035187 0 0 Z " fill="#53B46F" transform="translate(455.6875,418)"/>
</svg>
